<?xml version="1.0" encoding="UTF-8"?>

<svg xmlns="http://www.w3.org/2000/svg" style="display:none">
  <symbol id="do-icon-grid" viewBox="0 0 24 24" fill="none" stroke="currentColor" stroke-width="1.8" stroke-linecap="round" stroke-linejoin="round"><path d="M3 3h7v7H3zM14 3h7v7h-7zM3 14h7v7H3zM14 14h7v7h-7z"></path></symbol>
  <symbol id="do-icon-box" viewBox="0 0 24 24" fill="none" stroke="currentColor" stroke-width="1.8" stroke-linecap="round" stroke-linejoin="round"><path d="M21 8l-9-5-9 5v8l9 5 9-5V8zM3 8l9 5M12 22V13M21 8l-9 5"></path></symbol>
  <symbol id="do-icon-tag" viewBox="0 0 24 24" fill="none" stroke="currentColor" stroke-width="1.8" stroke-linecap="round" stroke-linejoin="round"><path d="M20.59 13.41l-7.17 7.17a2 2 0 01-2.83 0L2 12V2h10l8.59 8.59a2 2 0 010 2.82zM7 7h.01"></path></symbol>
  <symbol id="do-icon-pin" viewBox="0 0 24 24" fill="none" stroke="currentColor" stroke-width="1.8" stroke-linecap="round" stroke-linejoin="round"><path d="M21 10c0 7-9 13-9 13s-9-6-9-13a9 9 0 1118 0zM12 7a3 3 0 100 6 3 3 0 000-6z"></path></symbol>
  <symbol id="do-icon-file" viewBox="0 0 24 24" fill="none" stroke="currentColor" stroke-width="1.8" stroke-linecap="round" stroke-linejoin="round"><path d="M14 2H6a2 2 0 00-2 2v16a2 2 0 002 2h12a2 2 0 002-2V8zM14 2v6h6M16 13H8M16 17H8M10 9H8"></path></symbol>
  <symbol id="do-icon-users" viewBox="0 0 24 24" fill="none" stroke="currentColor" stroke-width="1.8" stroke-linecap="round" stroke-linejoin="round"><path d="M17 21v-2a4 4 0 00-4-4H5a4 4 0 00-4 4v2M9 11a4 4 0 100-8 4 4 0 000 8zM23 21v-2a4 4 0 00-3-3.87M16 3.13a4 4 0 010 7.75"></path></symbol>
  <symbol id="do-icon-search" viewBox="0 0 24 24" fill="none" stroke="currentColor" stroke-width="1.8" stroke-linecap="round" stroke-linejoin="round"><path d="M11 19a8 8 0 100-16 8 8 0 000 16zM21 21l-4.35-4.35"></path></symbol>
  <symbol id="do-icon-scan" viewBox="0 0 24 24" fill="none" stroke="currentColor" stroke-width="1.8" stroke-linecap="round" stroke-linejoin="round"><path d="M3 7V5a2 2 0 012-2h2M17 3h2a2 2 0 012 2v2M21 17v2a2 2 0 01-2 2h-2M7 21H5a2 2 0 01-2-2v-2M8 12h8"></path></symbol>
  <symbol id="do-icon-check" viewBox="0 0 24 24" fill="none" stroke="currentColor" stroke-width="1.8" stroke-linecap="round" stroke-linejoin="round"><path d="M20 6L9 17l-5-5"></path></symbol>
  <symbol id="do-icon-link" viewBox="0 0 24 24" fill="none" stroke="currentColor" stroke-width="1.8" stroke-linecap="round" stroke-linejoin="round"><path d="M10 13a5 5 0 007.54.54l3-3a5 5 0 00-7.07-7.07l-1.72 1.71M14 11a5 5 0 00-7.54-.54l-3 3a5 5 0 007.07 7.07l1.71-1.71"></path></symbol>
  <symbol id="do-icon-settings" viewBox="0 0 24 24" fill="none" stroke="currentColor" stroke-width="1.8" stroke-linecap="round" stroke-linejoin="round"><path d="M12.22 2h-.44a2 2 0 00-2 2v.18a2 2 0 01-1 1.73l-.43.25a2 2 0 01-2 0l-.15-.08a2 2 0 00-2.73.73l-.22.38a2 2 0 00.73 2.73l.15.1a2 2 0 011 1.72v.51a2 2 0 01-1 1.74l-.15.09a2 2 0 00-.73 2.73l.22.38a2 2 0 002.73.73l.15-.08a2 2 0 012 0l.43.25a2 2 0 011 1.73V20a2 2 0 002 2h.44a2 2 0 002-2v-.18a2 2 0 011-1.73l.43-.25a2 2 0 012 0l.15.08a2 2 0 002.73-.73l.22-.39a2 2 0 00-.73-2.73l-.15-.08a2 2 0 01-1-1.74v-.5a2 2 0 011-1.74l.15-.09a2 2 0 00.73-2.73l-.22-.38a2 2 0 00-2.73-.73l-.15.08a2 2 0 01-2 0l-.43-.25a2 2 0 01-1-1.73V4a2 2 0 00-2-2zM12 15a3 3 0 100-6 3 3 0 000 6z"></path></symbol>
  <symbol id="do-icon-bell" viewBox="0 0 24 24" fill="none" stroke="currentColor" stroke-width="1.8" stroke-linecap="round" stroke-linejoin="round"><path d="M18 8A6 6 0 006 8c0 7-3 9-3 9h18s-3-2-3-9M13.73 21a2 2 0 01-3.46 0"></path></symbol>
</svg>